<?xml version="1.0" encoding="utf-8"?>
<!-- Generator: Adobe Illustrator 16.0.0, SVG Export Plug-In . SVG Version: 6.00 Build 0)  -->
<!DOCTYPE svg PUBLIC "-//W3C//DTD SVG 1.1//EN" "http://www.w3.org/Graphics/SVG/1.1/DTD/svg11.dtd">
<svg version="1.1" id="Layer_1" xmlns="http://www.w3.org/2000/svg" xmlns:xlink="http://www.w3.org/1999/xlink" x="0px" y="0px"
	 width="1000px" height="1000px" viewBox="0 0 1000 1000" enable-background="new 0 0 1000 1000" xml:space="preserve">
<g id="Layer_2" display="none">
	<rect x="11.078" y="73.396" display="inline" fill="#FFFFFF" width="917.704" height="917.704"/>
</g>
<g id="Layer_1_1_" display="none">
	<g display="inline">
		<g>
			<g>
				<g>
					<path fill="#1C3664" d="M240.235,168.688c0,22.514,0,45.027,0,67.541c0,54.164,0,108.329,0,162.493
						c0,65.751,0,131.502,0,197.254c0,57.274,0,114.548,0,171.822c0,28.733,0,57.467,0,86.2c0,0.607,0,1.218,0,1.826
						c0,9.673,15,9.673,15,0c0-22.515,0-45.027,0-67.54c0-54.165,0-108.329,0-162.493c0-65.752,0-131.503,0-197.254
						c0-57.274,0-114.549,0-171.823c0-28.733,0-57.467,0-86.2c0-0.608,0-1.217,0-1.826
						C255.235,159.015,240.235,159.015,240.235,168.688L240.235,168.688z"/>
				</g>
			</g>
			<g>
				<g>
					<path fill="#1C3664" d="M241.278,164.102c-33.135,31.723-66.271,63.445-99.406,95.168
						c-26.654,25.519-53.309,51.037-79.963,76.555c-6.999,6.7,3.623,17.293,10.606,10.606
						c33.135-31.723,66.271-63.445,99.406-95.168c26.654-25.519,53.309-51.037,79.963-76.555
						C258.883,168.008,248.262,157.416,241.278,164.102L241.278,164.102z"/>
				</g>
			</g>
			<g>
				<g>
					<path fill="#1C3664" d="M253.885,508.825c-33.135-31.722-66.27-63.445-99.405-95.168
						c-26.655-25.519-53.309-51.037-79.964-76.555c-6.984-6.687-17.605,3.906-10.606,10.606
						c33.135,31.723,66.27,63.446,99.405,95.168c26.655,25.519,53.309,51.037,79.964,76.556
						C250.262,526.118,260.883,515.525,253.885,508.825L253.885,508.825z"/>
				</g>
			</g>
			<g>
				<g>
					<path fill="#1C3664" d="M240.109,512.077c-17.864,29.563-35.728,59.124-53.592,88.687
						c-33.176,54.9-66.352,109.803-99.527,164.703c-17.864,29.563-35.728,59.124-53.592,88.687
						c-4.915,8.134,7.796,15.516,12.689,7.418c17.864-29.563,35.728-59.124,53.592-88.688
						c33.176-54.899,66.352-109.802,99.527-164.703c17.864-29.562,35.728-59.124,53.592-88.686
						C257.713,511.361,245.002,503.979,240.109,512.077L240.109,512.077z"/>
				</g>
			</g>
			<g>
				<g>
					<path fill="#1C3664" d="M243.909,174.708c33.135,31.723,66.27,63.445,99.406,95.168c26.653,25.519,53.309,51.037,79.963,76.555
						c6.983,6.687,17.604-3.906,10.606-10.606c-33.136-31.723-66.271-63.445-99.406-95.168
						c-26.653-25.519-53.309-51.037-79.962-76.555C247.532,157.416,236.911,168.008,243.909,174.708L243.909,174.708z"/>
				</g>
			</g>
			<g>
				<g>
					<path fill="#1C3664" d="M252.516,519.433c33.135-31.724,66.27-63.445,99.406-95.169c26.654-25.518,53.31-51.037,79.964-76.555
						c6.998-6.7-3.623-17.293-10.606-10.606c-33.136,31.723-66.271,63.445-99.405,95.168
						c-26.654,25.518-53.309,51.035-79.963,76.555C234.911,515.525,245.532,526.118,252.516,519.433L252.516,519.433z"/>
				</g>
			</g>
			<g>
				<g>
					<path fill="#1C3664" d="M244.909,516.709c33.135,31.723,66.27,63.445,99.406,95.168c26.653,25.519,53.309,51.037,79.963,76.556
						c6.983,6.687,17.604-3.906,10.606-10.606c-33.136-31.724-66.271-63.445-99.406-95.168
						c-26.653-25.52-53.309-51.037-79.962-76.557C248.532,499.416,237.911,510.008,244.909,516.709L244.909,516.709z"/>
				</g>
			</g>
		</g>
		<g>
			<g>
				<path fill="#1C3664" d="M253.516,861.433c33.135-31.724,66.27-63.445,99.406-95.169c26.654-25.519,53.31-51.037,79.964-76.555
					c6.998-6.701-3.623-17.293-10.606-10.607c-33.136,31.725-66.271,63.446-99.405,95.17
					c-26.654,25.519-53.309,51.036-79.963,76.555C235.911,857.525,246.532,868.118,253.516,861.433L253.516,861.433z"/>
			</g>
		</g>
	</g>
</g>
<g id="Layer_3" display="none">
	<g display="inline">
		<g>
			<g>
				<path fill="#1C3664" d="M544.113,205.042c0,19.168,0,38.336,0,57.504c0,48.275,0,96.551,0,144.826c0,63.538,0,127.076,0,190.615
					c0,64.957,0,129.914,0,194.871c0,52.532,0,105.064,0,157.598c0,26.263,0,52.526,0,78.789c0,0.883,0,1.766,0,2.647
					c0,11.641,18.051,11.641,18.051,0c0-19.168,0-38.336,0-57.505c0-48.274,0-96.55,0-144.824c0-63.539,0-127.077,0-190.615
					c0-64.957,0-129.915,0-194.872c0-52.532,0-105.064,0-157.597c0-26.263,0-52.526,0-78.79c0-0.883,0-1.765,0-2.648
					C562.164,193.403,544.113,193.403,544.113,205.042L544.113,205.042z"/>
			</g>
		</g>
		<g>
			<g>
				<path fill="#1C3664" d="M545.369,199.524c-30.107,28.825-60.216,57.649-90.324,86.474
					c-39.455,37.773-78.91,75.547-118.365,113.32c-2.383,2.281-4.767,4.563-7.15,6.846c-8.421,8.063,4.358,20.809,12.764,12.764
					c30.108-28.825,60.216-57.649,90.324-86.474c39.455-37.773,78.91-75.547,118.366-113.32c2.383-2.282,4.767-4.564,7.149-6.846
					C566.555,204.225,553.773,191.479,545.369,199.524L545.369,199.524z"/>
			</g>
		</g>
		<g>
			<g>
				<path fill="#1C3664" d="M560.54,614.339c-30.108-28.824-60.216-57.647-90.324-86.474
					c-39.455-37.773-78.911-75.546-118.366-113.319c-2.383-2.282-4.767-4.563-7.149-6.846c-8.404-8.045-21.186,4.701-12.765,12.764
					c30.108,28.824,60.217,57.649,90.324,86.473c39.455,37.773,78.911,75.548,118.366,113.32c2.384,2.281,4.767,4.563,7.15,6.846
					C556.181,635.148,568.961,622.401,560.54,614.339L560.54,614.339z"/>
			</g>
		</g>
		<g>
			<g>
				<path fill="#1C3664" d="M548.535,212.288c30.107,28.824,60.216,57.649,90.324,86.473
					c39.455,37.773,78.909,75.547,118.364,113.32c2.384,2.282,4.768,4.563,7.15,6.846c8.404,8.045,21.186-4.701,12.764-12.764
					c-30.107-28.824-60.216-57.649-90.323-86.474c-39.455-37.773-78.91-75.546-118.365-113.319c-2.384-2.282-4.768-4.564-7.15-6.846
					C552.895,191.479,540.113,204.225,548.535,212.288L548.535,212.288z"/>
			</g>
		</g>
		<g>
			<g>
				<path fill="#1C3664" d="M558.892,627.104c30.107-28.825,60.217-57.649,90.323-86.475c39.455-37.772,78.91-75.547,118.365-113.32
					c2.384-2.281,4.768-4.563,7.151-6.846c8.421-8.063-4.359-20.809-12.765-12.764c-30.106,28.825-60.216,57.648-90.322,86.474
					c-39.455,37.774-78.91,75.546-118.365,113.32c-2.384,2.282-4.769,4.563-7.151,6.846
					C537.707,622.401,550.487,635.148,558.892,627.104L558.892,627.104z"/>
			</g>
		</g>
		<g>
			<g>
				<path fill="#1C3664" d="M549.738,623.826c30.107,28.824,60.216,57.648,90.323,86.474
					c39.455,37.773,78.91,75.548,118.365,113.321c2.384,2.281,4.768,4.563,7.15,6.846c8.403,8.046,21.186-4.701,12.764-12.764
					c-30.107-28.824-60.216-57.649-90.324-86.475c-39.455-37.772-78.909-75.548-118.364-113.32c-2.385-2.281-4.768-4.563-7.15-6.846
					C554.098,603.017,541.316,615.764,549.738,623.826L549.738,623.826z"/>
			</g>
		</g>
		<g>
			<g>
				<path fill="#1C3664" d="M560.096,1038.643c30.107-28.824,60.217-57.648,90.323-86.475
					c39.455-37.773,78.91-75.547,118.366-113.32c2.383-2.281,4.767-4.563,7.15-6.846c8.422-8.063-4.359-20.81-12.765-12.764
					c-30.106,28.824-60.216,57.648-90.323,86.475c-39.455,37.773-78.909,75.547-118.365,113.32c-2.384,2.281-4.768,4.563-7.15,6.846
					C538.91,1033.941,551.691,1046.688,560.096,1038.643L560.096,1038.643z"/>
			</g>
		</g>
		<g>
			<g>
				<path fill="#1C3664" d="M341.315,829.01c30.107-28.824,60.216-57.648,90.323-86.474c39.455-37.773,78.91-75.546,118.365-113.319
					c2.384-2.281,4.769-4.563,7.151-6.846c8.421-8.063-4.359-20.811-12.765-12.764c-30.106,28.823-60.216,57.648-90.323,86.474
					c-39.455,37.773-78.91,75.546-118.365,113.319c-2.383,2.281-4.767,4.563-7.151,6.846
					C320.13,824.309,332.911,837.056,341.315,829.01L341.315,829.01z"/>
			</g>
		</g>
	</g>
</g>
<g>
	<path fill="#FFFFFF" d="M738.996,258.236c-41.495-39.725-82.988-79.451-124.483-119.176
		c-35.21-33.709-70.419-67.417-105.629-101.126c0,5.363,0,10.727,0,16.09c0,55.892,0,111.785,0,167.678
		c0,80.229,0,160.456,0,240.685c0,5.385,0,10.769,0,16.153c37.969-36.351,75.938-72.7,113.907-109.051
		C661.525,332.404,700.261,295.32,738.996,258.236z"/>
	<path fill="#FFFFFF" d="M371.314,149.704c-37.787,36.178-75.576,72.354-113.365,108.533c42.44,40.632,84.88,81.263,127.321,121.895
		c34.11,32.655,68.22,65.312,102.331,97.968c0-62.602,0-125.203,0-187.806c0-65.553,0-131.107,0-196.659c0-18.42,0-36.841,0-55.261
		C448.838,75.484,410.077,112.594,371.314,149.704z"/>
	<path fill="#FFFFFF" d="M740.415,743.518c-41.494-39.726-82.988-79.449-124.482-119.176
		c-35.683-34.163-71.366-68.324-107.049-102.486c0,63.625,0,127.249,0,190.874c0,65.554,0,131.106,0,196.659
		c0,18.598,0,37.194,0,55.792c38.442-36.804,76.884-73.606,115.328-110.411C662.946,817.686,701.681,780.602,740.415,743.518z"/>
	<path fill="#FFFFFF" d="M487.601,989.019c0-13.339,0-26.679,0-40.018c0-55.893,0-111.787,0-167.679c0-80.229,0-160.456,0-240.686
		c0-6.6,0-13.201,0-19.801c-39.146,37.478-78.292,74.955-117.438,112.433c-40.567,38.835-81.133,77.673-121.7,116.51
		c-9.91,9.487-24.98-5.544-15.05-15.051c0.21-0.203,0.422-0.406,0.634-0.609c44.06-42.182,88.122-84.362,132.181-126.546
		c37.64-36.035,75.279-72.069,112.92-108.104c-40.016-38.31-80.032-76.621-120.047-114.93
		c-40.565-38.837-81.132-77.675-121.698-116.512c-0.11-0.105-0.201-0.214-0.304-0.321c-5.477-3.221-8.463-10.863-2.534-16.54
		c0.21-0.205,0.422-0.405,0.634-0.608c44.062-42.183,88.121-84.365,132.183-126.548C407.947,85.172,448.514,46.335,489.08,7.498
		c1.016-0.973,2.087-1.675,3.179-2.165c0.946-0.573,1.981-1,3.065-1.269C224.917,8.16,6.973,228.632,6.973,500.014
		c0,269.615,215.113,488.984,483.073,495.847C488.554,994.188,487.601,991.912,487.601,989.019z"/>
	<path fill="#FFFFFF" d="M502.986,4c-0.692,0-1.382,0.01-2.072,0.013c0.828,0.186,1.631,0.459,2.391,0.821
		c1.568,0.435,3.119,1.283,4.56,2.663c0.212,0.203,0.423,0.404,0.635,0.607c44.062,42.183,88.121,84.365,132.183,126.547
		c40.565,38.837,81.133,77.675,121.699,116.512c5.931,5.678,2.942,13.322-2.535,16.541c-0.104,0.106-0.194,0.215-0.305,0.321
		c-0.212,0.205-0.424,0.406-0.636,0.609c-44.06,42.182-88.12,84.364-132.181,126.547c-36.563,35.005-73.128,70.01-109.69,105.016
		c41.689,39.912,83.378,79.823,125.066,119.736c40.565,38.838,81.132,77.674,121.7,116.511c5.929,5.678,2.943,13.319-2.533,16.54
		c-0.104,0.107-0.195,0.218-0.306,0.323c-0.212,0.203-0.424,0.406-0.636,0.609c-44.063,42.183-88.12,84.363-132.182,126.548
		c-40.227,38.511-80.452,77.021-120.679,115.532C779.345,993.592,999,772.459,999,500.014C999,226.073,776.928,4,502.986,4z"/>
</g>
</svg>
